<?xml version="1.0" encoding="utf-8"?>
<!-- Generator: Adobe Illustrator 24.0.0, SVG Export Plug-In . SVG Version: 6.00 Build 0)  -->
<svg version="1.1" id="Layer_1" xmlns="http://www.w3.org/2000/svg" xmlns:xlink="http://www.w3.org/1999/xlink" x="0px" y="0px"
	 viewBox="0 0 128 128" style="enable-background:new 0 0 128 128;" xml:space="preserve">
<style type="text/css">
	.st0{clip-path:url(#SVGID_2_);}
	.st1{clip-path:url(#SVGID_4_);fill:#FFFFFF;}
</style>
<g>
	<defs>
		<path id="SVGID_1_" d="M110.48,84.72H17.93v-61.7h92.55V84.72z M71.92,107.86H56.49V92.44h15.42V107.86z M110.48,15.31H17.93
			c-4.26,0-7.71,3.45-7.71,7.71v61.7c0,4.26,3.45,7.71,7.71,7.71h30.85v15.42H33.36v7.71h61.7v-7.71H79.63V92.44h30.85
			c4.26,0,7.71-3.45,7.71-7.71v-61.7C118.19,18.76,114.74,15.31,110.48,15.31z"/>
	</defs>
	<clipPath id="SVGID_2_">
		<use xlink:href="#SVGID_1_"  style="overflow:visible;"/>
	</clipPath>
	<g class="st0">
		<defs>
			<rect id="SVGID_3_" x="-224.24" y="-231.49" width="8539.24" height="6318.05"/>
		</defs>
		<clipPath id="SVGID_4_">
			<use xlink:href="#SVGID_3_"  style="overflow:visible;"/>
		</clipPath>
		<rect x="-20.63" y="-15.54" class="st1" width="169.67" height="161.96"/>
	</g>
</g>
</svg>
