<?xml version="1.0" encoding="utf-8"?>
<!-- Generator: Adobe Illustrator 24.0.0, SVG Export Plug-In . SVG Version: 6.00 Build 0)  -->
<svg version="1.1" id="Layer_1" xmlns="http://www.w3.org/2000/svg" xmlns:xlink="http://www.w3.org/1999/xlink" x="0px" y="0px"
	 viewBox="0 0 128 128" style="enable-background:new 0 0 128 128;" xml:space="preserve">
<style type="text/css">
	.st0{clip-path:url(#SVGID_2_);}
	.st1{clip-path:url(#SVGID_4_);fill:#FFFFFF;}
</style>
<g>
	<defs>
		<path id="SVGID_1_" d="M35,96.86c0-6.63,5.62-12.01,12.55-12.01S60.1,90.23,60.1,96.86c0,6.63-5.62,12.01-12.55,12.01
			S35,103.5,35,96.86z M5.72,100.87h21.34c1.98,9.33,10.55,16.03,20.5,16.03s18.52-6.7,20.5-16.03h54.8v-8.01h-54.8
			c-1.98-9.33-10.55-16.03-20.5-16.03s-18.52,6.7-20.5,16.03H5.72V100.87z M81.02,44.82c-6.93,0-12.55-5.38-12.55-12.01
			S74.09,20.8,81.02,20.8c6.93,0,12.55,5.38,12.55,12.01S87.95,44.82,81.02,44.82z M122.85,28.81h-21.34
			c-1.98-9.33-10.55-16.03-20.5-16.03s-18.52,6.7-20.5,16.03H5.72v8.01h54.8c1.98,9.33,10.55,16.03,20.5,16.03s18.52-6.7,20.5-16.03
			h21.34V28.81z"/>
	</defs>
	<clipPath id="SVGID_2_">
		<use xlink:href="#SVGID_1_"  style="overflow:visible;"/>
	</clipPath>
	<g class="st0">
		<defs>
			<rect id="SVGID_3_" x="-8629.69" y="-195.46" width="9006.33" height="6663.64"/>
		</defs>
		<clipPath id="SVGID_4_">
			<use xlink:href="#SVGID_3_"  style="overflow:visible;"/>
		</clipPath>
		<rect x="-26.82" y="-19.76" class="st1" width="182.21" height="169.19"/>
	</g>
</g>
</svg>
