<svg width="114" height="122.0999984741211" xmlns="http://www.w3.org/2000/svg">
 <style type="text/css">.st0{fill:#FF5A5F;}</style>

 <g>
  <title>background</title>
  <rect fill="none" id="canvas_background" height="124.099998" width="116" y="-1" x="-1"/>
 </g>
 <g>
  <title>Layer 1</title>
  <path id="logo_1_" class="st0" d="m198.44546,38.6zm-86.5,48.2c-0.6,-1.5 -1.2,-3.1 -1.8,-4.4c-1,-2.2 -2,-4.3 -2.8,-6.2l-0.1,-0.1c-8.4,-18.4 -17.5,-37 -27.1,-55.3l-0.4,-0.7c-1,-1.8 -2,-3.8 -2.9,-5.8c-1.2,-2.2 -2.4,-4.5 -4.4,-6.7c-3.9,-4.9 -9.5,-7.6 -15.5,-7.6c-6.1,0 -11.6,2.7 -15.7,7.3c-1.8,2.2 -3.2,4.5 -4.4,6.7c-1,2 -2,3.9 -2.9,5.8l-0.4,0.7c-9.4,18.4 -18.6,37 -27.1,55.3l-0.1,0.2c-0.9,2 -1.8,4 -2.8,6.2c-0.6,1.3 -1.2,2.8 -1.8,4.4c-1.6,4.5 -2.1,8.8 -1.5,13.2c1.3,9.2 7.5,16.9 15.9,20.3c3.2,1.3 6.5,2 9.9,2c1,0 2.2,-0.1 3.2,-0.2c4,-0.5 8.2,-1.8 12.2,-4.2c5,-2.8 9.8,-6.9 15.2,-12.7c5.4,5.9 10.3,9.9 15.2,12.7c4,2.3 8.2,3.7 12.2,4.2c1,0.1 2.2,0.2 3.2,0.2c3.4,0 6.9,-0.6 9.9,-2c8.6,-3.4 14.6,-11.3 15.9,-20.3c1,-4.2 0.5,-8.5 -1.1,-13zm-55.2,6.3c-6.6,-8.3 -10.9,-16.2 -12.4,-22.8c-0.6,-2.8 -0.7,-5.3 -0.4,-7.5c0.2,-2 1,-3.7 2,-5.1c2.3,-3.3 6.2,-5.4 10.8,-5.4s8.6,2 10.8,5.4c1,1.5 1.7,3.2 2,5.1c0.4,2.2 0.2,4.8 -0.4,7.5c-1.5,6.6 -5.8,14.4 -12.4,22.8zm48.8,5.8c-0.9,6.4 -5.1,11.9 -11.1,14.3c-2.9,1.2 -6.1,1.6 -9.3,1.2c-3.1,-0.4 -6.1,-1.3 -9.3,-3.2c-4.4,-2.4 -8.8,-6.2 -14,-11.9c8.1,-9.9 13,-19 14.8,-27.1c0.9,-3.8 1,-7.2 0.6,-10.4c-0.5,-3.1 -1.6,-5.9 -3.3,-8.3c-3.8,-5.5 -10.2,-8.7 -17.3,-8.7s-13.5,3.3 -17.3,8.7c-1.7,2.4 -2.8,5.3 -3.3,8.3c-0.5,3.2 -0.4,6.7 0.6,10.4c1.8,8.1 6.9,17.3 14.8,27.2c-5,5.6 -9.5,9.4 -14,11.9c-3.2,1.8 -6.2,2.8 -9.3,3.2c-3.3,0.4 -6.5,-0.1 -9.3,-1.2c-6,-2.4 -10.3,-8 -11.1,-14.3c-0.4,-3.1 -0.1,-6.1 1.1,-9.5c0.4,-1.2 1,-2.4 1.6,-3.9c0.9,-2 1.8,-4 2.8,-6.1l0.1,-0.2c8.4,-18.2 17.5,-36.9 26.9,-55l0.4,-0.7c1,-1.8 2,-3.8 2.9,-5.6c1,-2 2.1,-3.8 3.4,-5.4c2.6,-2.9 6,-4.5 9.8,-4.5s7.2,1.6 9.8,4.5c1.3,1.6 2.4,3.4 3.4,5.4c1,1.8 2,3.8 2.9,5.6l0.4,0.7c9.3,18.2 18.4,36.9 26.8,55.1l0,0.1c1,2 1.8,4.2 2.8,6.1c0.6,1.5 1.2,2.7 1.6,3.9c1.2,3.1 1.6,6.2 1.1,9.4z" stroke="null"/>
 </g>
</svg>